<mxfile host="65bd71144e">
    <diagram name="Página-1" id="0AZLx7lfqz-vYnRKq3Ob">
        <mxGraphModel dx="978" dy="1211" grid="1" gridSize="10" guides="1" tooltips="1" connect="1" arrows="1" fold="1" page="1" pageScale="1" pageWidth="827" pageHeight="1169" math="0" shadow="0">
            <root>
                <mxCell id="0"/>
                <mxCell id="1" parent="0"/>
                <mxCell id="w_QTJEAvzbbhJ3lSh7R2-1" value="LEFT" style="ellipse;whiteSpace=wrap;html=1;aspect=fixed;fillColor=#dae8fc;strokeColor=#6c8ebf;opacity=50;" parent="1" vertex="1">
                    <mxGeometry x="80" y="40" width="120" height="120" as="geometry"/>
                </mxCell>
                <mxCell id="w_QTJEAvzbbhJ3lSh7R2-2" value="RIGHT" style="ellipse;whiteSpace=wrap;html=1;aspect=fixed;fillColor=#fff2cc;strokeColor=#d6b656;opacity=50;" parent="1" vertex="1">
                    <mxGeometry x="240" y="40" width="120" height="120" as="geometry"/>
                </mxCell>
                <mxCell id="w_QTJEAvzbbhJ3lSh7R2-3" value="&lt;h1&gt;LEFT E RIGHT&lt;/h1&gt;&lt;p&gt;Ao selecionar uma tabela para uma relação inicial (SELECT * FROM TABELA), entenda essa como a tabela da esquerda (left).&lt;br&gt;A tabela a ser associada (JOIN TABELA), será a da direita (right)&lt;/p&gt;" style="text;html=1;spacing=5;spacingTop=-20;whiteSpace=wrap;overflow=hidden;rounded=0;" parent="1" vertex="1">
                    <mxGeometry x="400" y="40" width="240" height="140" as="geometry"/>
                </mxCell>
                <mxCell id="w_QTJEAvzbbhJ3lSh7R2-4" value="LEFT" style="ellipse;whiteSpace=wrap;html=1;aspect=fixed;fillColor=#dae8fc;strokeColor=#6c8ebf;opacity=50;" parent="1" vertex="1">
                    <mxGeometry x="110" y="200" width="120" height="120" as="geometry"/>
                </mxCell>
                <mxCell id="w_QTJEAvzbbhJ3lSh7R2-5" value="RIGHT" style="ellipse;whiteSpace=wrap;html=1;aspect=fixed;fillColor=#fff2cc;strokeColor=#d6b656;opacity=50;" parent="1" vertex="1">
                    <mxGeometry x="200" y="200" width="120" height="120" as="geometry"/>
                </mxCell>
                <mxCell id="w_QTJEAvzbbhJ3lSh7R2-6" value="&lt;font style=&quot;font-size: 8px; background-color: rgb(0, 255, 0);&quot;&gt;INNER&lt;/font&gt;" style="text;html=1;align=center;verticalAlign=middle;resizable=0;points=[];autosize=1;strokeColor=none;fillColor=none;" parent="1" vertex="1">
                    <mxGeometry x="190" y="245" width="50" height="30" as="geometry"/>
                </mxCell>
                <mxCell id="w_QTJEAvzbbhJ3lSh7R2-7" value="&lt;h1&gt;RIGHT JOIN&lt;/h1&gt;&lt;p&gt;Lorem ipsum dolor sit amet, consectetur adipisicing elit, sed do eiusmod tempor incididunt ut labore et dolore magna aliqua.&lt;/p&gt;" style="text;html=1;spacing=5;spacingTop=-20;whiteSpace=wrap;overflow=hidden;rounded=0;" parent="1" vertex="1">
                    <mxGeometry x="360" y="520" width="200" height="120" as="geometry"/>
                </mxCell>
                <mxCell id="2" value="LEFT" style="ellipse;whiteSpace=wrap;html=1;aspect=fixed;fillColor=#80FF00;strokeColor=#6c8ebf;opacity=50;" vertex="1" parent="1">
                    <mxGeometry x="110" y="360" width="120" height="120" as="geometry"/>
                </mxCell>
                <mxCell id="3" value="RIGHT" style="ellipse;whiteSpace=wrap;html=1;aspect=fixed;fillColor=#FFFFFF;strokeColor=#d6b656;opacity=50;" vertex="1" parent="1">
                    <mxGeometry x="200" y="360" width="120" height="120" as="geometry"/>
                </mxCell>
                <mxCell id="4" value="&lt;span style=&quot;font-size: 8px; background-color: rgb(0, 255, 0);&quot;&gt;LEFT&lt;/span&gt;" style="text;html=1;align=center;verticalAlign=middle;resizable=0;points=[];autosize=1;strokeColor=none;fillColor=none;" vertex="1" parent="1">
                    <mxGeometry x="195" y="405" width="40" height="30" as="geometry"/>
                </mxCell>
                <mxCell id="5" value="LEFT" style="ellipse;whiteSpace=wrap;html=1;aspect=fixed;fillColor=#dae8fc;strokeColor=#6c8ebf;opacity=50;" vertex="1" parent="1">
                    <mxGeometry x="110" y="520" width="120" height="120" as="geometry"/>
                </mxCell>
                <mxCell id="6" value="&lt;span style=&quot;font-size: 8px; background-color: rgb(0, 255, 0);&quot;&gt;RIGHT&lt;/span&gt;" style="text;html=1;align=center;verticalAlign=middle;resizable=0;points=[];autosize=1;strokeColor=none;fillColor=none;" vertex="1" parent="1">
                    <mxGeometry x="190" y="565" width="50" height="30" as="geometry"/>
                </mxCell>
                <mxCell id="7" value="RIGHT" style="ellipse;whiteSpace=wrap;html=1;aspect=fixed;fillColor=#FFFF99;strokeColor=#d6b656;opacity=50;" vertex="1" parent="1">
                    <mxGeometry x="200" y="520" width="120" height="120" as="geometry"/>
                </mxCell>
                <mxCell id="8" value="&lt;h1&gt;LEFT JOIN&lt;/h1&gt;&lt;p&gt;Lorem ipsum dolor sit amet, consectetur adipisicing elit, sed do eiusmod tempor incididunt ut labore et dolore magna aliqua.&lt;/p&gt;" style="text;html=1;spacing=5;spacingTop=-20;whiteSpace=wrap;overflow=hidden;rounded=0;" vertex="1" parent="1">
                    <mxGeometry x="360" y="360" width="200" height="120" as="geometry"/>
                </mxCell>
                <mxCell id="10" value="&lt;h1&gt;INNER JOIN&lt;/h1&gt;&lt;p&gt;Lorem ipsum dolor sit amet, consectetur adipisicing elit, sed do eiusmod tempor incididunt ut labore et dolore magna aliqua.&lt;/p&gt;" style="text;html=1;spacing=5;spacingTop=-20;whiteSpace=wrap;overflow=hidden;rounded=0;" vertex="1" parent="1">
                    <mxGeometry x="360" y="200" width="200" height="120" as="geometry"/>
                </mxCell>
                <mxCell id="11" value="LEFT" style="ellipse;whiteSpace=wrap;html=1;aspect=fixed;fillColor=#FF3333;strokeColor=#6c8ebf;opacity=50;" vertex="1" parent="1">
                    <mxGeometry x="110" y="680" width="120" height="120" as="geometry"/>
                </mxCell>
                <mxCell id="13" value="RIGHT" style="ellipse;whiteSpace=wrap;html=1;aspect=fixed;fillColor=#FF3333;strokeColor=#6c8ebf;opacity=50;" vertex="1" parent="1">
                    <mxGeometry x="200" y="680" width="120" height="120" as="geometry"/>
                </mxCell>
                <mxCell id="14" value="&lt;span style=&quot;font-size: 8px; background-color: rgb(0, 255, 0);&quot;&gt;FULL&lt;/span&gt;" style="text;html=1;align=center;verticalAlign=middle;resizable=0;points=[];autosize=1;strokeColor=none;fillColor=none;" vertex="1" parent="1">
                    <mxGeometry x="195" y="725" width="40" height="30" as="geometry"/>
                </mxCell>
                <mxCell id="15" value="&lt;h1&gt;FULL JOIN&lt;/h1&gt;&lt;p&gt;Lorem ipsum dolor sit amet, consectetur adipisicing elit, sed do eiusmod tempor incididunt ut labore et dolore magna aliqua.&lt;/p&gt;" style="text;html=1;spacing=5;spacingTop=-20;whiteSpace=wrap;overflow=hidden;rounded=0;" vertex="1" parent="1">
                    <mxGeometry x="360" y="680" width="200" height="120" as="geometry"/>
                </mxCell>
            </root>
        </mxGraphModel>
    </diagram>
</mxfile>